ply
format ascii 1.0
comment Created by Blender 3.4.1 - www.blender.org
element vertex 47
property float x
property float y
property float z
property float s
property float t
property uchar red
property uchar green
property uchar blue
property uchar alpha
element face 28
property list uchar uint vertex_indices
end_header
0.500000 -0.500000 -0.500000 1.000000 0.000000 255 255 255 255
0.500000 0.000000 0.000000 0.500000 0.500000 255 255 255 255
0.500000 -0.500000 0.500000 0.000000 0.000000 255 255 255 255
-0.500000 -0.500000 0.500000 -0.000149 1.000044 255 255 255 255
0.500000 -0.500000 -0.500000 0.999956 -0.000149 255 255 255 255
0.500000 -0.500000 0.500000 0.999956 0.999432 255 255 255 255
0.000000 0.000000 -0.500000 0.500000 0.500000 255 255 255 255
0.500000 0.500000 -0.500000 0.000100 0.999900 255 255 255 255
0.500000 -0.500000 -0.500000 0.000100 0.000100 255 255 255 255
0.500000 0.500000 -0.500000 0.000000 0.503906 255 255 255 255
0.000000 0.500000 0.000000 0.496094 1.000000 255 255 255 255
0.500000 0.500000 0.000000 0.000100 0.999900 255 255 255 255
0.000000 -0.000000 0.500000 0.500000 0.000071 255 255 255 255
-0.500000 -0.000000 0.500000 0.999929 0.000071 255 255 255 255
-0.500000 -0.500000 0.500000 0.999929 0.500000 255 255 255 255
-0.500000 0.000000 0.000000 0.500000 0.500000 255 255 255 255
-0.500000 0.000000 -0.500000 0.000071 0.500000 255 255 255 255
-0.500000 -0.500000 -0.500000 0.000071 0.000071 255 255 255 255
0.000000 0.500000 -0.500000 0.000100 0.999900 255 255 255 255
0.000000 0.000000 0.000000 0.500000 0.503906 255 255 255 255
0.000000 0.500000 0.000000 0.500000 1.000000 255 255 255 255
0.000000 0.500000 0.000000 0.503906 0.503906 255 255 255 255
0.500000 0.000000 0.000000 0.000100 0.999900 255 255 255 255
0.500000 0.500000 0.000000 0.000000 0.503906 255 255 255 255
-0.500000 0.000000 0.000000 0.999900 0.500000 255 255 255 255
0.000000 0.000000 -0.500000 0.500000 0.000100 255 255 255 255
-0.500000 0.000000 -0.500000 0.999900 0.000100 255 255 255 255
0.500000 -0.000000 0.500000 0.000100 0.999900 255 255 255 255
0.000000 0.000000 0.000000 0.500000 0.500000 255 255 255 255
0.000000 -0.000000 0.500000 0.500000 0.999900 255 255 255 255
-0.500000 -0.000000 0.500000 0.999900 0.999900 255 255 255 255
0.500000 0.500000 -0.500000 1.000000 1.000000 255 255 255 255
0.500000 0.500000 0.000000 0.500000 1.000000 255 255 255 255
0.500000 -0.000000 0.500000 0.000000 0.500000 255 255 255 255
-0.500000 -0.500000 0.500000 -0.000044 0.999851 255 255 255 255
-0.500000 -0.500000 -0.500000 -0.000045 -0.000149 255 255 255 255
-0.500000 -0.500000 -0.500000 0.999900 0.000100 255 255 255 255
-0.500000 0.000000 -0.500000 0.999900 0.500000 255 255 255 255
0.000000 0.500000 -0.500000 0.500000 0.999900 255 255 255 255
0.000000 0.500000 -0.500000 0.500000 0.503906 255 255 255 255
0.500000 -0.500000 0.500000 0.000071 0.500000 255 255 255 255
0.500000 -0.000000 0.500000 0.000071 0.000071 255 255 255 255
-0.500000 -0.500000 0.500000 0.999929 0.000071 255 255 255 255
-0.500000 -0.000000 0.500000 0.999929 0.500000 255 255 255 255
0.000000 0.000000 -0.500000 0.000000 0.503906 255 255 255 255
0.000000 0.000000 0.000000 0.500000 1.000000 255 255 255 255
0.500000 0.000000 0.000000 0.000100 0.500000 255 255 255 255
3 0 1 2
3 3 4 5
3 6 7 8
3 9 10 11
3 12 13 14
3 15 16 17
3 18 19 20
3 21 22 23
3 24 25 26
3 27 28 29
3 28 30 29
3 0 31 1
3 31 32 1
3 1 33 2
3 34 35 4
3 8 36 6
3 36 37 6
3 6 38 7
3 9 39 10
3 14 40 12
3 40 41 12
3 17 42 15
3 42 43 15
3 18 44 19
3 21 45 22
3 24 28 25
3 27 46 28
3 28 24 30
