ply
format ascii 1.0
comment Created by Blender 2.79 (sub 0) - www.blender.org, source file: '2step.blend'
element vertex 31
property float x
property float y
property float z
property float s
property float t
property uchar red
property uchar green
property uchar blue
element face 20
property list uchar uint vertex_indices
end_header
-0.500000 -0.500000 -0.500000 0.000100 0.999900 255 255 255
0.500000 -0.500000 0.500000 0.999900 0.000100 255 255 255
-0.500000 -0.500000 0.500000 0.999900 0.999900 255 255 255
0.000000 0.000000 0.500000 0.503906 0.507812 255 255 255
-0.500000 -0.500000 0.500000 0.000000 0.000000 255 255 255
0.500000 -0.500000 0.500000 1.000000 0.000000 255 255 255
-0.500000 0.000000 0.500000 0.500000 0.000000 255 255 255
-0.500000 -0.500000 -0.500000 1.000000 1.000000 255 255 255
-0.500000 -0.500000 0.500000 1.000000 0.000000 255 255 255
0.000000 0.000000 -0.500000 0.500000 0.500000 255 255 255
0.500000 0.500000 -0.500000 0.000000 1.000000 255 255 255
0.500000 -0.500000 -0.500000 0.000100 0.000100 255 255 255
0.500000 -0.500000 -0.500000 0.000100 0.999900 255 255 255
0.500000 0.500000 0.500000 0.999900 0.000100 255 255 255
0.500000 -0.500000 0.500000 0.999900 0.999900 255 255 255
0.500000 0.500000 0.500000 0.000000 1.000000 255 255 255
0.000000 0.500000 -0.500000 0.500000 0.000000 255 255 255
0.000000 0.500000 0.500000 0.500000 1.000000 255 255 255
0.000000 0.000000 -0.500000 0.000000 0.000000 255 255 255
0.000000 0.000000 0.500000 0.000000 1.000000 255 255 255
0.000000 0.000000 -0.500000 1.000000 1.000000 255 255 255
0.000000 0.000000 0.500000 1.000000 0.000000 255 255 255
-0.500000 0.000000 0.500000 0.000000 0.507812 255 255 255
0.500000 0.500000 0.500000 1.000000 1.000000 255 255 255
0.000000 0.500000 0.500000 0.503906 1.000000 255 255 255
-0.500000 0.000000 -0.500000 0.500000 1.000000 255 255 255
-0.500000 -0.500000 -0.500000 0.999900 0.000100 255 255 255
-0.500000 0.000000 -0.500000 0.999900 0.499999 255 255 255
0.000000 0.500000 -0.500000 0.500000 0.999899 255 255 255
0.500000 0.500000 -0.500000 0.000100 0.000100 255 255 255
0.500000 0.500000 -0.500000 0.000000 0.000000 255 255 255
3 0 1 2
3 3 4 5
3 6 7 8
3 9 10 11
3 12 13 14
3 15 16 17
3 17 18 19
3 20 6 21
3 0 11 1
3 3 22 4
3 5 23 3
3 23 24 3
3 6 25 7
3 11 26 9
3 26 27 9
3 9 28 10
3 12 29 13
3 15 30 16
3 17 16 18
3 20 25 6
