ply
format ascii 1.0
comment Created by Blender 2.79 (sub 0) - www.blender.org, source file: '2stepcorner.blend'
element vertex 45
property float x
property float y
property float z
property float s
property float t
property uchar red
property uchar green
property uchar blue
element face 28
property list uchar uint vertex_indices
end_header
0.500000 -0.500000 -0.500000 1.000000 0.000000 255 255 255
0.500000 0.000000 0.000000 0.500000 0.500000 255 255 255
0.500000 -0.500000 0.500000 0.000000 0.000000 255 255 255
-0.500000 -0.500000 0.500000 0.000000 0.000000 255 255 255
0.500000 -0.500000 -0.500000 0.000000 0.000000 255 255 255
0.000000 0.000000 -0.500000 0.500000 0.500000 255 255 255
0.500000 0.500000 -0.500000 0.000100 0.999900 255 255 255
0.500000 -0.500000 -0.500000 0.000100 0.000100 255 255 255
0.500000 0.500000 -0.500000 0.000000 0.503906 255 255 255
0.000000 0.500000 0.000000 0.496094 1.000000 255 255 255
0.500000 0.500000 0.000000 0.000100 0.999900 255 255 255
0.000000 0.000000 0.500000 0.500000 0.000071 255 255 255
-0.500000 0.000000 0.500000 0.999929 0.000071 255 255 255
-0.500000 -0.500000 0.500000 0.999929 0.500000 255 255 255
-0.500000 0.000000 0.000000 0.500000 0.500000 255 255 255
-0.500000 0.000000 -0.500000 0.000071 0.500000 255 255 255
-0.500000 -0.500000 -0.500000 0.000071 0.000071 255 255 255
0.000000 0.500000 -0.500000 0.000100 0.999900 255 255 255
0.000000 0.000000 0.000000 0.500000 0.503906 255 255 255
0.000000 0.500000 0.000000 0.500000 1.000000 255 255 255
0.000000 0.500000 0.000000 0.503906 0.503906 255 255 255
0.500000 0.000000 0.000000 0.000100 0.999900 255 255 255
0.500000 0.500000 0.000000 0.000000 0.503906 255 255 255
-0.500000 0.000000 0.000000 0.999900 0.500000 255 255 255
0.000000 0.000000 -0.500000 0.500000 0.000100 255 255 255
-0.500000 0.000000 -0.500000 0.999900 0.000100 255 255 255
0.500000 0.000000 0.500000 0.000100 0.999900 255 255 255
0.000000 0.000000 0.000000 0.500000 0.500000 255 255 255
0.000000 0.000000 0.500000 0.500000 0.999900 255 255 255
-0.500000 0.000000 0.500000 0.999900 0.999900 255 255 255
0.500000 0.500000 -0.500000 1.000000 1.000000 255 255 255
0.500000 0.500000 0.000000 0.500000 1.000000 255 255 255
0.500000 0.000000 0.500000 0.000000 0.500000 255 255 255
-0.500000 -0.500000 -0.500000 0.000000 0.000000 255 255 255
-0.500000 -0.500000 -0.500000 0.999900 0.000100 255 255 255
-0.500000 0.000000 -0.500000 0.999900 0.500000 255 255 255
0.000000 0.500000 -0.500000 0.500000 0.999900 255 255 255
0.000000 0.500000 -0.500000 0.500000 0.503906 255 255 255
0.500000 -0.500000 0.500000 0.000071 0.500000 255 255 255
0.500000 0.000000 0.500000 0.000071 0.000071 255 255 255
-0.500000 -0.500000 0.500000 0.999929 0.000071 255 255 255
-0.500000 0.000000 0.500000 0.999929 0.500000 255 255 255
0.000000 0.000000 -0.500000 0.000000 0.503906 255 255 255
0.000000 0.000000 0.000000 0.500000 1.000000 255 255 255
0.500000 0.000000 0.000000 0.000100 0.500000 255 255 255
3 0 1 2
3 3 4 2
3 5 6 7
3 8 9 10
3 11 12 13
3 14 15 16
3 17 18 19
3 20 21 22
3 23 24 25
3 26 27 28
3 27 29 28
3 0 30 1
3 30 31 1
3 1 32 2
3 3 33 4
3 7 34 5
3 34 35 5
3 5 36 6
3 8 37 9
3 13 38 11
3 38 39 11
3 16 40 14
3 40 41 14
3 17 42 18
3 20 43 21
3 23 27 24
3 26 44 27
3 27 23 29
