ply
format ascii 1.0
comment Created by Blender 2.79 (sub 0) - www.blender.org, source file: '2stepinnercorner.blend'
element vertex 39
property float x
property float y
property float z
property float s
property float t
property uchar red
property uchar green
property uchar blue
element face 24
property list uchar uint vertex_indices
end_header
0.500000 0.500000 -0.500000 0.000100 0.000100 255 255 255
0.500000 -0.500000 0.500000 0.999900 0.999900 255 255 255
0.500000 -0.500000 -0.500000 0.000100 0.999900 255 255 255
-0.500000 -0.500000 0.500000 0.999900 0.000100 255 255 255
0.500000 -0.500000 0.500000 0.000100 0.000100 255 255 255
-0.500000 0.500000 -0.500000 0.999900 0.999900 255 255 255
0.500000 -0.500000 -0.500000 0.000100 0.000100 255 255 255
-0.500000 -0.500000 -0.500000 0.999900 0.000100 255 255 255
0.000000 0.500000 0.000000 0.500000 0.500000 255 255 255
0.500000 0.500000 0.500000 0.000100 0.999900 255 255 255
0.500000 -0.500000 0.500000 1.000000 0.000000 255 255 255
0.000000 0.000000 0.500000 0.500000 0.496094 255 255 255
-0.500000 -0.500000 0.500000 -0.000000 0.000000 255 255 255
-0.500000 0.000000 0.000000 0.500000 0.500000 255 255 255
-0.500000 0.500000 -0.500000 0.000100 0.999900 255 255 255
-0.500000 -0.500000 -0.500000 0.000100 0.000100 255 255 255
0.000000 0.000000 0.500000 0.492188 1.000000 255 255 255
0.000000 0.500000 0.000000 0.000000 0.503906 255 255 255
0.000000 0.000000 0.000000 0.492188 0.503906 255 255 255
-0.500000 0.000000 0.500000 0.999900 0.999900 255 255 255
0.000000 0.000000 0.000000 0.500000 0.503906 255 255 255
-0.500000 0.000000 0.000000 1.000000 0.503906 255 255 255
-0.500000 0.500000 0.000000 0.003906 1.000000 255 255 255
0.000000 0.000000 0.000000 0.496094 0.503906 255 255 255
0.000000 0.500000 0.000000 0.496094 1.000000 255 255 255
0.500000 0.500000 0.500000 0.999900 0.000100 255 255 255
-0.500000 -0.500000 -0.500000 0.999900 0.999900 255 255 255
0.500000 0.500000 -0.500000 0.000100 0.999900 255 255 255
0.000000 0.500000 0.500000 0.500000 0.999900 255 255 255
-0.500000 0.500000 -0.500000 0.999900 0.000100 255 255 255
-0.500000 0.500000 0.000000 0.999900 0.500000 255 255 255
0.500000 0.500000 0.500000 1.000000 1.000000 255 255 255
0.000000 0.500000 0.500000 0.500000 1.000000 255 255 255
-0.500000 0.000000 0.500000 -0.000000 0.500000 255 255 255
-0.500000 0.000000 0.500000 0.999900 0.500000 255 255 255
-0.500000 0.500000 0.000000 0.500000 0.999900 255 255 255
0.000000 0.500000 0.500000 0.000000 1.000000 255 255 255
0.000000 0.000000 0.500000 0.500000 1.000000 255 255 255
-0.500000 0.000000 0.000000 0.000000 0.503906 255 255 255
3 0 1 2
3 3 2 4
3 5 6 7
3 8 9 0
3 10 11 12
3 13 14 15
3 16 17 18
3 19 20 21
3 22 23 24
3 0 25 1
3 3 26 2
3 5 27 6
3 8 28 9
3 0 29 8
3 29 30 8
3 10 31 11
3 31 32 11
3 11 33 12
3 15 3 13
3 3 34 13
3 13 35 14
3 16 36 17
3 19 37 20
3 22 38 23
