ply
format ascii 1.0
comment Created by Blender 2.79 (sub 0) - www.blender.org, source file: '4stepcorner.blend'
element vertex 87
property float x
property float y
property float z
property float s
property float t
property uchar red
property uchar green
property uchar blue
element face 60
property list uchar uint vertex_indices
end_header
0.500000 -0.500000 -0.500000 0.000100 0.999900 255 255 255
0.500000 0.000000 -0.000000 0.500000 0.500000 255 255 255
0.500000 -0.250000 0.250000 0.749950 0.749950 255 255 255
-0.500000 -0.500000 0.500000 0.999900 0.000100 255 255 255
0.500000 -0.500000 0.500000 0.000100 0.000100 255 255 255
0.000000 0.000000 -0.500000 0.496094 0.500000 255 255 255
0.250000 0.250000 -0.500000 0.250000 0.757812 255 255 255
0.500000 -0.500000 -0.500000 0.000000 0.000000 255 255 255
0.500000 0.500000 -0.500000 0.000000 1.000000 255 255 255
0.250000 0.500000 -0.250000 0.250000 0.750000 255 255 255
0.500000 0.500000 -0.250000 0.250000 1.000000 255 255 255
0.500000 -0.500000 0.500000 1.000000 0.000000 255 255 255
-0.250000 -0.250000 0.500000 0.250000 0.250000 255 255 255
-0.500000 -0.500000 0.500000 0.000000 0.000000 255 255 255
-0.500000 -0.500000 0.500000 0.999950 0.000050 255 255 255
-0.500000 -0.250000 0.500000 0.999950 0.250025 255 255 255
-0.500000 -0.250000 0.250000 0.749975 0.250025 255 255 255
-0.250000 -0.250000 -0.500000 0.000050 0.250025 255 255 255
-0.500000 -0.250000 0.250000 0.749975 0.000050 255 255 255
-0.250000 -0.250000 0.250000 0.749975 0.250025 255 255 255
-0.250000 0.000000 0.000000 0.500000 0.500000 255 255 255
-0.250000 -0.250000 -0.500000 0.000000 0.250000 255 255 255
-0.250000 -0.250000 0.250000 0.750000 0.250000 255 255 255
-0.250000 0.000000 -0.500000 0.000050 0.250013 255 255 255
0.000000 0.000000 -0.000000 0.500000 0.499987 255 255 255
0.000000 0.000000 -0.500000 0.000050 0.499988 255 255 255
0.000000 0.250000 -0.250000 0.250025 0.749987 255 255 255
0.000000 0.000000 -0.500000 0.000050 0.500013 255 255 255
0.000000 0.000000 -0.000000 0.500000 0.500013 255 255 255
0.000000 0.250000 -0.500000 0.000050 0.500013 255 255 255
0.250000 0.250000 -0.250000 0.250025 0.749987 255 255 255
0.250000 0.250000 -0.500000 0.000050 0.749987 255 255 255
0.250000 0.500000 -0.500000 0.000000 1.000000 255 255 255
0.250000 0.250000 -0.250000 0.250000 0.750000 255 255 255
0.250000 0.500000 -0.250000 0.250000 1.000000 255 255 255
0.000000 0.250000 -0.000000 0.500000 0.500013 255 255 255
0.000000 0.250000 -0.250000 0.250025 0.500013 255 255 255
-0.250000 0.000000 0.000000 0.500000 0.250013 255 255 255
0.000000 0.000000 0.250000 0.749975 0.499987 255 255 255
-0.500000 -0.250000 0.500000 0.999950 0.000050 255 255 255
0.500000 0.500000 -0.250000 0.250000 1.000000 255 255 255
0.250000 0.250000 -0.250000 0.500000 0.750000 255 255 255
0.500000 0.250000 -0.250000 0.500000 1.000000 255 255 255
0.250000 0.250000 -0.000000 0.500000 0.750000 255 255 255
0.500000 0.250000 -0.250000 0.250000 1.000000 255 255 255
0.000000 0.250000 -0.000000 0.500000 0.500000 255 255 255
0.000000 0.000000 -0.000000 0.750000 0.500000 255 255 255
0.000000 0.000000 0.250000 0.750000 0.500000 255 255 255
0.500000 0.000000 -0.000000 0.500000 1.000000 255 255 255
0.000000 0.000000 -0.000000 0.500000 0.500000 255 255 255
-0.250000 0.000000 0.250000 0.750000 0.250000 255 255 255
-0.250000 -0.250000 0.250000 1.000000 0.250000 255 255 255
0.500000 -0.250000 0.250000 0.750000 1.000000 255 255 255
-0.250000 -0.250000 0.500000 1.000000 0.250000 255 255 255
0.500000 -0.250000 0.500000 1.000000 1.000000 255 255 255
0.500000 0.500000 -0.500000 0.000100 0.000100 255 255 255
0.500000 0.250000 -0.250000 0.250050 0.250050 255 255 255
0.500000 0.500000 -0.250000 0.250050 0.000100 255 255 255
0.500000 0.250000 -0.000000 0.500000 0.250050 255 255 255
0.500000 -0.250000 0.500000 0.999900 0.749950 255 255 255
0.500000 -0.500000 0.500000 0.999900 0.999900 255 255 255
0.500000 0.000000 0.250000 0.749950 0.500000 255 255 255
-0.500000 -0.500000 -0.500000 0.999900 0.999900 255 255 255
-0.500000 -0.500000 -0.500000 1.000000 0.000000 255 255 255
-0.250000 -0.250000 -0.500000 0.750000 0.250000 255 255 255
-0.500000 -0.250000 -0.500000 1.000000 0.250000 255 255 255
-0.250000 0.000000 -0.500000 0.750000 0.500000 255 255 255
0.250000 0.500000 -0.500000 0.250000 1.000000 255 255 255
0.000000 0.250000 -0.500000 0.496094 0.757812 255 255 255
0.250000 0.500000 -0.500000 0.000000 0.750000 255 255 255
0.500000 -0.250000 0.500000 1.000000 0.250000 255 255 255
-0.500000 -0.250000 0.500000 0.000000 0.250000 255 255 255
-0.500000 -0.250000 -0.500000 0.000050 0.250025 255 255 255
-0.500000 -0.500000 -0.500000 0.000050 0.000050 255 255 255
-0.500000 -0.250000 -0.500000 0.000050 0.000050 255 255 255
-0.250000 0.000000 0.250000 0.750000 0.500000 255 255 255
-0.250000 0.000000 -0.500000 0.000000 0.500000 255 255 255
0.000000 0.250000 -0.000000 0.500000 0.749987 255 255 255
0.000000 0.250000 -0.500000 0.000050 0.749987 255 255 255
0.250000 0.250000 -0.500000 0.000000 0.750000 255 255 255
0.250000 0.250000 -0.000000 0.500000 0.749987 255 255 255
-0.250000 0.000000 0.250000 0.749975 0.250013 255 255 255
-0.250000 -0.250000 0.500000 0.999950 0.250025 255 255 255
0.500000 0.250000 -0.000000 0.500000 1.000000 255 255 255
0.500000 0.000000 -0.000000 0.750000 1.000000 255 255 255
0.500000 0.000000 0.250000 0.750000 1.000000 255 255 255
0.500000 -0.250000 0.250000 1.000000 1.000000 255 255 255
3 0 1 2
3 3 0 4
3 5 6 7
3 8 9 10
3 11 12 13
3 14 15 16
3 17 18 19
3 20 21 22
3 23 24 25
3 26 27 28
3 29 30 31
3 32 33 34
3 35 30 36
3 37 38 24
3 39 19 18
3 40 41 42
3 43 44 33
3 43 45 46
3 47 48 49
3 47 50 51
3 52 53 54
3 0 55 56
3 55 57 56
3 56 58 1
3 59 60 2
3 60 0 2
3 1 61 2
3 0 56 1
3 3 62 0
3 7 63 64
3 63 65 64
3 64 66 5
3 67 8 6
3 8 7 6
3 5 68 6
3 7 64 5
3 8 69 9
3 70 12 11
3 12 71 13
3 16 72 73
3 73 14 16
3 17 74 18
3 22 75 20
3 20 76 21
3 23 37 24
3 28 77 26
3 26 78 27
3 29 36 30
3 32 79 33
3 35 80 30
3 37 81 38
3 39 82 19
3 40 9 41
3 43 83 44
3 46 84 43
3 84 83 43
3 47 85 48
3 51 86 47
3 86 85 47
3 52 22 53
