ply
format ascii 1.0
comment Created by Blender 2.79 (sub 0) - www.blender.org, source file: '4step.blend'
element vertex 57
property float x
property float y
property float z
property float s
property float t
property uchar red
property uchar green
property uchar blue
element face 36
property list uchar uint vertex_indices
end_header
0.500000 0.500000 -0.500000 0.000100 0.000100 255 255 255
0.500000 -0.500000 0.500000 0.999900 0.999900 255 255 255
0.500000 -0.500000 -0.500000 0.000100 0.999900 255 255 255
-0.500000 -0.500000 0.500000 0.999900 0.000100 255 255 255
0.500000 -0.500000 0.500000 0.000100 0.000100 255 255 255
0.000000 0.000000 -0.500000 0.496094 0.500000 255 255 255
0.250000 0.250000 -0.500000 0.250000 0.757812 255 255 255
0.500000 -0.500000 -0.500000 -0.000000 0.000000 255 255 255
0.500000 0.500000 0.500000 1.000000 1.000000 255 255 255
0.250000 0.500000 -0.500000 -0.000000 0.750000 255 255 255
0.250000 0.500000 0.500000 1.000000 0.750000 255 255 255
0.500000 -0.500000 0.500000 1.000000 0.000000 255 255 255
0.000000 0.000000 0.500000 0.500000 0.500000 255 255 255
-0.250000 -0.250000 0.500000 0.250000 0.250000 255 255 255
-0.500000 -0.500000 -0.500000 0.000050 0.000050 255 255 255
-0.500000 -0.250000 0.500000 0.999950 0.250025 255 255 255
-0.500000 -0.250000 -0.500000 0.000050 0.250025 255 255 255
0.250000 0.500000 0.500000 1.000000 1.000000 255 255 255
0.250000 0.250000 -0.500000 0.000000 0.750000 255 255 255
0.250000 0.250000 0.500000 1.000000 0.750000 255 255 255
0.000000 0.250000 -0.500000 0.000050 0.500013 255 255 255
0.250000 0.250000 0.500000 0.999950 0.749987 255 255 255
0.250000 0.250000 -0.500000 0.000050 0.749987 255 255 255
0.000000 0.250000 0.500000 0.999950 0.749987 255 255 255
0.000000 0.000000 -0.500000 0.000050 0.500013 255 255 255
0.000000 0.000000 0.500000 0.999950 0.500012 255 255 255
-0.250000 0.000000 -0.500000 0.000050 0.250013 255 255 255
0.000000 0.000000 0.500000 0.999950 0.499987 255 255 255
0.000000 0.000000 -0.500000 0.000050 0.499988 255 255 255
-0.250000 0.000000 0.500000 1.000000 0.500000 255 255 255
-0.250000 -0.250000 -0.500000 0.000000 0.250000 255 255 255
-0.250000 -0.250000 0.500000 1.000000 0.250000 255 255 255
-0.500000 -0.250000 -0.500000 0.000050 0.000050 255 255 255
-0.250000 -0.250000 0.500000 0.999950 0.250025 255 255 255
-0.250000 -0.250000 -0.500000 0.000050 0.250025 255 255 255
0.500000 0.500000 0.500000 0.999900 0.000100 255 255 255
-0.500000 -0.500000 -0.500000 0.999900 0.999900 255 255 255
-0.500000 -0.500000 -0.500000 1.000000 0.000000 255 255 255
-0.250000 -0.250000 -0.500000 0.750000 0.250000 255 255 255
-0.500000 -0.250000 -0.500000 1.000000 0.250000 255 255 255
-0.250000 0.000000 -0.500000 0.750000 0.500000 255 255 255
0.250000 0.500000 -0.500000 0.250000 1.000000 255 255 255
0.500000 0.500000 -0.500000 0.000000 1.000000 255 255 255
0.000000 0.250000 -0.500000 0.496094 0.757812 255 255 255
0.250000 0.250000 0.500000 0.750000 0.750000 255 255 255
0.250000 0.500000 0.500000 0.750000 1.000000 255 255 255
0.000000 0.250000 0.500000 0.500000 0.750000 255 255 255
-0.500000 -0.250000 0.500000 0.000000 0.250000 255 255 255
-0.500000 -0.500000 0.500000 0.000000 0.000000 255 255 255
-0.250000 0.000000 0.500000 0.250000 0.500000 255 255 255
-0.500000 -0.500000 0.500000 0.999950 0.000050 255 255 255
0.250000 0.500000 -0.500000 0.000000 1.000000 255 255 255
0.000000 0.250000 0.500000 0.999950 0.500013 255 255 255
0.000000 0.250000 -0.500000 0.000050 0.749987 255 255 255
-0.250000 0.000000 0.500000 0.999950 0.250013 255 255 255
-0.250000 0.000000 -0.500000 0.000000 0.500000 255 255 255
-0.500000 -0.250000 0.500000 0.999950 0.000050 255 255 255
3 0 1 2
3 3 2 4
3 5 6 7
3 8 9 10
3 11 12 13
3 14 15 16
3 17 18 19
3 20 21 22
3 23 24 25
3 26 27 28
3 29 30 31
3 32 33 34
3 0 35 1
3 3 36 2
3 7 37 38
3 37 39 38
3 38 40 5
3 41 42 6
3 42 7 6
3 5 43 6
3 7 38 5
3 8 42 9
3 11 8 44
3 8 45 44
3 44 46 12
3 47 48 13
3 48 11 13
3 12 49 13
3 11 44 12
3 14 50 15
3 17 51 18
3 20 52 21
3 23 53 24
3 26 54 27
3 29 55 30
3 32 56 33
