ply
format ascii 1.0
comment Created by Blender 2.79 (sub 0) - www.blender.org, source file: '4stepinnercorner.blend'
element vertex 124
property float x
property float y
property float z
property float s
property float t
property uchar red
property uchar green
property uchar blue
element face 76
property list uchar uint vertex_indices
end_header
0.500000 0.500000 -0.500000 0.000100 0.000100 255 255 255
0.500000 -0.500000 0.500000 0.999900 0.999900 255 255 255
0.500000 -0.500000 -0.500000 0.000100 0.999900 255 255 255
-0.500000 -0.500000 0.500000 0.999900 0.000100 255 255 255
0.500000 -0.500000 0.500000 0.000100 0.000100 255 255 255
0.000000 0.000000 -0.500000 0.496094 0.500000 255 255 255
0.250000 0.250000 -0.500000 0.250000 0.757812 255 255 255
0.500000 -0.500000 -0.500000 -0.000000 0.000000 255 255 255
0.500000 0.500000 0.500000 1.000000 1.000000 255 255 255
0.250000 0.500000 -0.500000 -0.000000 0.750000 255 255 255
0.250000 0.500000 0.500000 1.000000 0.750000 255 255 255
0.500000 -0.500000 0.500000 1.000000 0.000000 255 255 255
0.000000 0.000000 0.500000 0.500000 0.500000 255 255 255
-0.250000 -0.250000 0.500000 0.250000 0.250000 255 255 255
-0.500000 -0.500000 -0.500000 0.000050 0.000050 255 255 255
-0.500000 -0.250000 0.500000 0.999950 0.250025 255 255 255
-0.500000 -0.250000 -0.500000 0.000050 0.250025 255 255 255
0.250000 0.500000 0.500000 1.000000 1.000000 255 255 255
0.250000 0.250000 -0.500000 0.000000 0.750000 255 255 255
0.250000 0.250000 0.500000 1.000000 0.750000 255 255 255
0.000000 0.250000 -0.500000 0.000050 0.500013 255 255 255
0.250000 0.250000 0.500000 0.999950 0.749987 255 255 255
0.250000 0.250000 -0.500000 0.000050 0.749987 255 255 255
0.000000 0.250000 0.500000 0.999950 0.749987 255 255 255
0.000000 0.000000 -0.500000 0.000050 0.500013 255 255 255
0.000000 0.000000 0.500000 0.999950 0.500012 255 255 255
-0.250000 0.000000 -0.500000 0.000050 0.250013 255 255 255
0.000000 0.000000 0.500000 0.999950 0.499987 255 255 255
0.000000 0.000000 -0.500000 0.000050 0.499988 255 255 255
-0.250000 0.000000 0.500000 1.000000 0.500000 255 255 255
-0.250000 -0.250000 -0.500000 0.000000 0.250000 255 255 255
-0.250000 -0.250000 0.500000 1.000000 0.250000 255 255 255
-0.500000 -0.250000 -0.500000 0.000050 0.000050 255 255 255
-0.250000 -0.250000 0.500000 0.999950 0.250025 255 255 255
-0.250000 -0.250000 -0.500000 0.000050 0.250025 255 255 255
-0.500000 0.500000 -0.500000 0.000100 0.000100 255 255 255
0.000000 0.250000 -0.500000 0.500000 0.250050 255 255 255
-0.250000 0.000000 -0.500000 0.250050 0.500000 255 255 255
-0.500000 -0.250000 -0.500000 0.000000 0.250000 255 255 255
-0.500000 0.000000 0.000000 0.496094 0.500000 255 255 255
-0.500000 0.250000 -0.250000 0.250000 0.757812 255 255 255
-0.500000 0.500000 -0.500000 0.000000 0.000000 255 255 255
0.250000 0.500000 -0.250000 0.250000 0.750000 255 255 255
0.250000 0.500000 -0.500000 0.000000 0.750000 255 255 255
-0.500000 0.000000 0.250000 0.000000 0.500000 255 255 255
-0.250000 -0.250000 0.250000 0.250000 0.250000 255 255 255
-0.250000 0.000000 0.250000 0.250000 0.500000 255 255 255
-0.500000 0.000000 0.250000 0.750000 0.000000 255 255 255
-0.250000 0.000000 0.000000 0.500000 0.250000 255 255 255
-0.500000 0.000000 0.000000 0.500000 0.000000 255 255 255
-0.500000 0.250000 0.000000 0.500000 0.250000 255 255 255
-0.250000 0.000000 0.000000 0.250000 0.000000 255 255 255
-0.500000 0.250000 0.000000 0.500000 0.000000 255 255 255
0.000000 0.250000 -0.250000 0.250000 0.500000 255 255 255
-0.500000 0.250000 -0.250000 0.250000 0.000000 255 255 255
-0.500000 0.500000 -0.250000 0.000000 1.000000 255 255 255
-0.500000 0.250000 -0.250000 0.000000 0.750000 255 255 255
0.000000 0.250000 -0.250000 0.500000 0.750000 255 255 255
0.250000 0.250000 -0.250000 0.250000 0.750000 255 255 255
0.250000 0.500000 -0.500000 0.000000 1.000000 255 255 255
0.250000 0.500000 -0.250000 0.250000 1.000000 255 255 255
0.250000 0.250000 -0.250000 0.250025 0.749987 255 255 255
0.000000 0.250000 -0.500000 0.000050 0.500013 255 255 255
0.250000 0.250000 -0.500000 0.000050 0.749987 255 255 255
0.000000 0.000000 -0.500000 0.000050 0.500013 255 255 255
0.000000 0.250000 -0.500000 0.000050 0.749987 255 255 255
0.000000 0.250000 -0.250000 0.250025 0.749987 255 255 255
0.000000 0.000000 0.000000 0.500000 0.499987 255 255 255
-0.250000 0.000000 -0.500000 0.000050 0.250013 255 255 255
0.000000 0.000000 -0.500000 0.000050 0.499988 255 255 255
-0.250000 -0.250000 -0.500000 0.000000 0.250000 255 255 255
-0.250000 0.000000 -0.500000 0.000000 0.500000 255 255 255
-0.250000 0.000000 0.000000 0.500000 0.500000 255 255 255
-0.250000 -0.250000 -0.500000 0.000050 0.250025 255 255 255
-0.500000 -0.250000 0.250000 0.749975 0.000050 255 255 255
-0.500000 -0.250000 -0.500000 0.000050 0.000050 255 255 255
0.500000 0.500000 0.500000 0.999900 0.000100 255 255 255
-0.500000 -0.500000 -0.500000 0.999900 0.999900 255 255 255
-0.500000 -0.500000 -0.500000 1.000000 0.000000 255 255 255
-0.250000 -0.250000 -0.500000 0.750000 0.250000 255 255 255
-0.500000 -0.250000 -0.500000 1.000000 0.250000 255 255 255
-0.250000 0.000000 -0.500000 0.750000 0.500000 255 255 255
0.250000 0.500000 -0.500000 0.250000 1.000000 255 255 255
0.500000 0.500000 -0.500000 0.000000 1.000000 255 255 255
0.000000 0.250000 -0.500000 0.496094 0.757812 255 255 255
0.250000 0.250000 0.500000 0.750000 0.750000 255 255 255
0.250000 0.500000 0.500000 0.750000 1.000000 255 255 255
0.000000 0.250000 0.500000 0.500000 0.750000 255 255 255
-0.500000 -0.250000 0.500000 0.000000 0.250000 255 255 255
-0.500000 -0.500000 0.500000 0.000000 0.000000 255 255 255
-0.250000 0.000000 0.500000 0.250000 0.500000 255 255 255
-0.500000 -0.500000 0.500000 0.999950 0.000050 255 255 255
0.250000 0.500000 -0.500000 0.000000 1.000000 255 255 255
0.000000 0.250000 0.500000 0.999950 0.500013 255 255 255
0.000000 0.250000 -0.500000 0.000050 0.749987 255 255 255
-0.250000 0.000000 0.500000 0.999950 0.250013 255 255 255
-0.250000 0.000000 -0.500000 0.000000 0.500000 255 255 255
-0.500000 -0.250000 0.500000 0.999950 0.000050 255 255 255
0.250000 0.500000 -0.500000 0.749950 0.000100 255 255 255
0.250000 0.250000 -0.500000 0.749950 0.250050 255 255 255
0.000000 0.000000 -0.500000 0.500000 0.500000 255 255 255
-0.250000 -0.250000 -0.500000 0.250050 0.749950 255 255 255
-0.500000 -0.250000 -0.500000 0.000100 0.749950 255 255 255
-0.500000 -0.250000 0.250000 0.750000 0.250000 255 255 255
-0.500000 0.000000 0.250000 0.750000 0.500000 255 255 255
-0.500000 0.250000 0.000000 0.496094 0.757812 255 255 255
-0.500000 0.500000 -0.250000 0.250000 1.000000 255 255 255
-0.500000 0.500000 -0.500000 0.000000 1.000000 255 255 255
-0.500000 0.500000 -0.250000 0.250000 0.000000 255 255 255
-0.500000 -0.250000 0.250000 0.000000 0.250000 255 255 255
-0.250000 0.000000 0.250000 0.750000 0.250000 255 255 255
0.000000 0.000000 0.000000 0.000000 0.000000 255 255 255
0.000000 0.250000 0.000000 0.000000 0.250000 255 255 255
0.000000 0.250000 0.000000 0.500000 0.500000 255 255 255
0.250000 0.250000 -0.250000 0.750000 0.750000 255 255 255
0.250000 0.500000 -0.250000 0.750000 1.000000 255 255 255
0.250000 0.250000 -0.500000 0.000000 0.750000 255 255 255
0.000000 0.250000 -0.250000 0.250025 0.500013 255 255 255
0.000000 0.250000 0.000000 0.500000 0.749987 255 255 255
0.000000 0.000000 0.000000 0.500000 0.500013 255 255 255
-0.250000 0.000000 0.000000 0.500000 0.250013 255 255 255
-0.250000 0.000000 0.250000 0.750000 0.500000 255 255 255
-0.250000 -0.250000 0.250000 0.750000 0.250000 255 255 255
-0.250000 -0.250000 0.250000 0.749975 0.250025 255 255 255
3 0 1 2
3 3 2 4
3 5 6 7
3 8 9 10
3 11 12 13
3 14 15 16
3 17 18 19
3 20 21 22
3 23 24 25
3 26 27 28
3 29 30 31
3 32 33 34
3 35 36 37
3 38 39 40
3 41 42 43
3 44 45 46
3 47 48 49
3 50 49 51
3 52 53 54
3 55 56 57
3 58 59 60
3 61 62 63
3 64 65 66
3 67 68 69
3 70 71 72
3 73 74 75
3 0 76 1
3 3 77 2
3 7 78 79
3 78 80 79
3 79 81 5
3 82 83 6
3 83 7 6
3 5 84 6
3 7 79 5
3 8 83 9
3 11 8 85
3 8 86 85
3 85 87 12
3 88 89 13
3 89 11 13
3 12 90 13
3 11 85 12
3 14 91 15
3 17 92 18
3 20 93 21
3 23 94 24
3 26 95 27
3 29 96 30
3 32 97 33
3 35 98 36
3 98 99 36
3 36 100 37
3 101 102 37
3 102 35 37
3 38 103 39
3 103 104 39
3 39 105 40
3 106 107 40
3 107 38 40
3 41 108 42
3 44 109 45
3 47 110 48
3 111 112 51
3 112 50 51
3 52 113 53
3 114 115 57
3 115 55 57
3 58 116 59
3 61 117 62
3 66 118 119
3 119 64 66
3 67 120 68
3 72 121 122
3 122 70 72
3 73 123 74
