ply
format ascii 1.0
comment Created by Blender 2.80 (sub 75) - www.blender.org, source file: 'curvecorner.blend'
element vertex 166
property float x
property float y
property float z
property float s
property float t
property uchar red
property uchar green
property uchar blue
property uchar alpha
element face 190
property list uchar uint vertex_indices
end_header
0.500000 -0.500000 0.500000 0.000000 0.000000 255 255 255 255
0.304910 -0.500000 0.480785 0.000000 0.000000 255 255 255 255
0.500000 -0.500000 0.500000 0.000000 0.000000 255 255 255 255
0.500000 -0.304910 0.480785 1.000000 0.125000 255 255 255 255
0.304910 -0.500000 0.480785 0.875000 0.000000 255 255 255 255
0.500000 -0.500000 0.500000 1.000000 0.000000 255 255 255 255
0.304910 -0.500000 0.480785 0.000000 0.000000 255 255 255 255
0.117316 -0.500000 0.423879 0.000000 0.000000 255 255 255 255
0.500000 -0.117317 0.423879 1.000000 0.250000 255 255 255 255
0.308658 -0.304910 0.461939 0.875000 0.125000 255 255 255 255
0.117316 -0.500000 0.423879 0.750000 0.000000 255 255 255 255
0.117316 -0.500000 0.423879 0.000000 0.000000 255 255 255 255
-0.055570 -0.500000 0.331469 0.000000 0.000000 255 255 255 255
0.500000 0.055570 0.331469 1.000000 0.375000 255 255 255 255
0.319760 -0.117317 0.406127 0.875000 0.250000 255 255 255 255
0.124670 -0.304910 0.406127 0.750000 0.125000 255 255 255 255
-0.055570 -0.500000 0.331469 0.625000 0.000000 255 255 255 255
-0.055570 -0.500000 0.331469 0.000000 0.000000 255 255 255 255
-0.207107 -0.500000 0.207106 0.000000 0.000000 255 255 255 255
0.500000 0.207107 0.207107 1.000000 0.500000 255 255 255 255
0.337788 0.055570 0.315493 0.875000 0.375000 255 255 255 255
0.146447 -0.117317 0.353553 0.750000 0.250000 255 255 255 255
-0.013280 -0.117317 0.268177 0.625000 0.250000 255 255 255 255
-0.044895 -0.304910 0.315493 0.625000 0.125000 255 255 255 255
-0.193520 -0.304910 0.193520 0.500000 0.125000 255 255 255 255
-0.207107 -0.500000 0.207106 0.500000 0.000000 255 255 255 255
-0.207107 -0.500000 0.207106 0.000000 0.000000 255 255 255 255
-0.331470 -0.500000 0.055570 0.000000 0.000000 255 255 255 255
0.500000 0.331470 0.055570 1.000000 0.625000 255 255 255 255
0.362050 0.207107 0.193520 0.875000 0.500000 255 255 255 255
0.362050 0.207107 0.193520 0.875000 0.500000 255 255 255 255
0.181810 0.055570 0.268178 0.750000 0.375000 255 255 255 255
-0.315493 -0.304910 0.044895 0.375000 0.125000 255 255 255 255
-0.331470 -0.500000 0.055570 0.375000 0.000000 255 255 255 255
-0.331470 -0.500000 0.055570 0.000000 0.000000 255 255 255 255
-0.423880 -0.500000 -0.117317 0.000000 0.000000 255 255 255 255
0.425342 0.423880 -0.124670 0.875000 0.750000 255 255 255 255
0.391614 0.331470 0.044895 0.875000 0.625000 255 255 255 255
0.229402 0.207107 0.153281 0.750000 0.500000 255 255 255 255
0.038060 0.055570 0.191341 0.625000 0.375000 255 255 255 255
-0.153282 -0.117317 0.153281 0.500000 0.250000 255 255 255 255
-0.423880 -0.500000 -0.117317 0.250000 0.000000 255 255 255 255
-0.423880 -0.500000 -0.117317 0.000000 0.000000 255 255 255 255
-0.480785 -0.500000 -0.304910 0.000000 0.000000 255 255 255 255
0.181810 0.423880 -0.287393 0.375000 0.625000 255 255 255 255
0.337788 0.480785 -0.391614 0.375000 0.750000 255 255 255 255
0.319760 0.480785 -0.425342 0.250000 0.750000 255 255 255 255
0.287392 0.331470 0.013280 0.750000 0.625000 255 255 255 255
0.107152 0.207107 0.087938 0.625000 0.500000 255 255 255 255
-0.087938 0.055570 0.087938 0.500000 0.375000 255 255 255 255
-0.268178 -0.117317 0.013280 0.375000 0.250000 255 255 255 255
-0.353554 -0.117317 -0.146447 0.250000 0.250000 255 255 255 255
-0.406128 -0.304910 -0.124670 0.250000 0.125000 255 255 255 255
-0.480785 -0.500000 -0.304910 0.125000 0.000000 255 255 255 255
-0.480785 -0.500000 -0.304910 0.000000 0.000000 255 255 255 255
-0.500000 -0.500000 -0.500000 0.000000 0.000000 255 255 255 255
-0.500000 -0.500000 -0.499998 0.000000 0.000000 255 255 255 255
0.461940 0.480785 -0.308658 0.875000 0.750000 255 255 255 255
0.425342 0.480785 -0.319760 0.750000 0.750000 255 255 255 255
0.353553 0.423880 -0.146447 0.750000 0.625000 255 255 255 255
0.353553 0.423880 -0.146447 0.750000 0.750000 255 255 255 255
0.191342 0.331470 -0.038060 0.625000 0.625000 255 255 255 255
-0.000000 0.207107 -0.000000 0.500000 0.500000 255 255 255 255
-0.087938 0.207107 -0.107153 0.375000 0.500000 255 255 255 255
-0.191342 0.055570 -0.038061 0.375000 0.375000 255 255 255 255
-0.406128 -0.117317 -0.319760 0.125000 0.250000 255 255 255 255
-0.461940 -0.304910 -0.308659 0.125000 0.125000 255 255 255 255
-0.500000 -0.499998 -0.500000 0.000000 0.000000 255 255 255 255
-0.500000 -0.499997 -0.500000 0.000000 0.000000 255 255 255 255
-0.500000 -0.500000 -0.500000 0.000000 0.000000 255 255 255 255
-0.500000 -0.500002 -0.500000 0.000000 0.000000 255 255 255 255
-0.500000 -0.500000 -0.500003 0.000000 0.000000 255 255 255 255
0.287392 0.423880 -0.181810 0.625000 0.750000 255 255 255 255
0.107152 0.331470 -0.107153 0.500000 0.625000 255 255 255 255
-0.153282 0.207107 -0.229402 0.250000 0.500000 255 255 255 255
-0.268178 0.055570 -0.181811 0.250000 0.375000 255 255 255 255
-0.423880 -0.117317 -0.500000 0.000000 0.250000 255 255 255 255
-0.480785 -0.304910 -0.500000 0.000000 0.125000 255 255 255 255
-0.500000 -0.499997 -0.500000 0.000000 0.000000 255 255 255 255
0.229402 0.423880 -0.229402 0.500000 0.750000 255 255 255 255
0.038060 0.331470 -0.191342 0.375000 0.625000 255 255 255 255
-0.315493 0.055570 -0.337789 0.125000 0.375000 255 255 255 255
-0.331470 0.055570 -0.500000 0.000000 0.375000 255 255 255 255
0.181810 0.423880 -0.287393 0.375000 0.750000 255 255 255 255
-0.013280 0.331470 -0.287393 0.250000 0.625000 255 255 255 255
-0.044895 0.331470 -0.391614 0.125000 0.625000 255 255 255 255
-0.193520 0.207107 -0.362051 0.125000 0.500000 255 255 255 255
-0.207107 0.207107 -0.500000 0.000000 0.500000 255 255 255 255
0.146446 0.423880 -0.353554 0.250000 0.750000 255 255 255 255
-0.055570 0.331470 -0.500000 0.000000 0.625000 255 255 255 255
0.287392 0.423880 -0.181810 0.625000 0.625000 255 255 255 255
0.391613 0.480785 -0.337788 0.625000 0.750000 255 255 255 255
0.362050 0.480785 -0.362050 0.500000 0.750000 255 255 255 255
0.124669 0.423880 -0.425342 0.125000 0.750000 255 255 255 255
0.117316 0.423880 -0.500000 0.000000 0.750000 255 255 255 255
-0.500000 -0.499998 -0.500000 0.000000 0.000000 255 255 255 255
-0.500000 -0.500000 -0.500000 0.000000 0.000000 255 255 255 255
-0.500000 -0.500000 -0.500000 1.000000 0.000000 255 255 255 255
0.500000 -0.500000 -0.500000 1.000000 1.000000 255 255 255 255
-0.480785 -0.500000 -0.304910 0.804910 0.019215 255 255 255 255
0.117316 0.423880 -0.500000 0.617316 0.076120 255 255 255 255
0.499999 0.500000 -0.500000 0.999999 0.000000 255 255 255 255
0.500000 0.423880 -0.117317 0.617317 0.923880 255 255 255 255
0.500000 0.331470 0.055570 0.444430 0.831470 255 255 255 255
0.500000 -0.500000 -0.500000 1.000000 0.000000 255 255 255 255
0.500000 -0.499999 -1.500000 0.000000 0.000000 255 255 255 255
0.500000 -0.500000 -1.500000 0.000000 0.000000 255 255 255 255
0.499999 -0.500000 -1.500000 0.000000 0.000000 255 255 255 255
0.500001 -0.500000 -1.500000 0.000000 0.000000 255 255 255 255
0.500000 -0.500001 -1.500000 0.000000 0.000000 255 255 255 255
0.499999 0.500000 -0.500000 0.003906 0.652344 255 255 255 255
0.499999 0.500000 -0.500000 0.003906 0.652344 255 255 255 255
0.308658 0.480785 -0.461940 0.070312 0.992188 255 255 255 255
0.500000 0.423880 -0.117317 1.000000 0.750000 255 255 255 255
0.304909 0.480785 -0.500000 0.000000 0.750000 255 255 255 255
0.117316 0.423880 -0.500000 0.000000 0.625000 255 255 255 255
0.308658 0.480785 -0.461940 0.125000 0.750000 255 255 255 255
0.124669 0.423880 -0.425342 0.125000 0.625000 255 255 255 255
0.146446 0.423880 -0.353554 0.250000 0.625000 255 255 255 255
0.425342 0.423880 -0.124670 0.875000 0.625000 255 255 255 255
0.500000 0.423880 -0.117317 1.000000 0.625000 255 255 255 255
0.500000 0.480785 -0.304910 1.000000 0.750000 255 255 255 255
0.229402 0.423880 -0.229402 0.500000 0.625000 255 255 255 255
0.500000 -0.500000 0.500000 0.000000 1.000000 255 255 255 255
0.304910 -0.500000 0.480785 0.019215 0.804910 255 255 255 255
0.117316 -0.500000 0.423879 0.076121 0.617316 255 255 255 255
-0.055570 -0.500000 0.331469 0.168530 0.444430 255 255 255 255
-0.207107 -0.500000 0.207106 0.292893 0.292893 255 255 255 255
-0.331470 -0.500000 0.055570 0.444430 0.168530 255 255 255 255
-0.423880 -0.500000 -0.117317 0.617317 0.076120 255 255 255 255
-0.500000 -0.500000 -0.499998 0.999998 0.000000 255 255 255 255
-0.500000 -0.500000 -0.500000 0.000000 1.000000 255 255 255 255
-0.500000 -0.499998 -0.500000 0.000000 0.999998 255 255 255 255
-0.480785 -0.304910 -0.500000 0.019215 0.804910 255 255 255 255
-0.423880 -0.117317 -0.500000 0.076120 0.617317 255 255 255 255
-0.331470 0.055570 -0.500000 0.168530 0.444430 255 255 255 255
-0.207107 0.207107 -0.500000 0.292893 0.292893 255 255 255 255
-0.055570 0.331470 -0.500000 0.444430 0.168530 255 255 255 255
0.304909 0.480785 -0.500000 0.804909 0.019215 255 255 255 255
0.499997 0.500000 -0.500000 0.999997 0.000000 255 255 255 255
0.499999 0.500000 -0.500000 0.999999 0.000000 255 255 255 255
0.500000 0.500000 -0.500000 1.000000 0.000000 255 255 255 255
0.500000 0.500000 -0.500000 1.000000 0.000000 255 255 255 255
0.500000 0.500000 -0.500000 1.000000 0.000000 255 255 255 255
0.500000 -0.500000 0.500000 0.000000 0.000000 255 255 255 255
0.500000 -0.304910 0.480785 0.019215 0.195090 255 255 255 255
0.500000 0.500000 -0.500000 1.000000 1.000000 255 255 255 255
0.500000 0.500000 -0.499999 0.999999 1.000000 255 255 255 255
0.500000 0.480785 -0.304910 0.804910 0.980785 255 255 255 255
0.500000 -0.117317 0.423879 0.076120 0.382684 255 255 255 255
0.500000 -0.500000 0.500000 0.000000 0.000000 255 255 255 255
0.500000 0.055570 0.331469 0.168530 0.555570 255 255 255 255
0.500000 0.207107 0.207107 0.292893 0.707107 255 255 255 255
0.499997 0.500000 -0.500000 0.000000 0.652344 255 255 255 255
0.304909 0.480785 -0.500000 0.003906 1.000000 255 255 255 255
0.319760 0.480785 -0.425342 0.136719 0.968750 255 255 255 255
0.500000 0.500000 -0.499999 0.000000 0.652344 255 255 255 255
0.337788 0.480785 -0.391614 0.199219 0.945312 255 255 255 255
0.362050 0.480785 -0.362050 0.250000 0.902344 255 255 255 255
0.391613 0.480785 -0.337788 0.296875 0.851562 255 255 255 255
0.425342 0.480785 -0.319760 0.320312 0.789062 255 255 255 255
0.461940 0.480785 -0.308658 0.347656 0.722656 255 255 255 255
0.500000 0.480785 -0.304910 0.351562 0.652344 255 255 255 255
0.500000 0.500000 -0.500000 0.003906 0.652344 255 255 255 255
0.500000 0.500000 -0.500000 0.003906 0.652344 255 255 255 255
0.500000 0.500000 -0.500000 0.003906 0.652344 255 255 255 255
3 0 1 2
3 3 4 5
3 6 7 1
3 8 9 3
3 9 10 4
3 11 12 7
3 13 14 8
3 14 15 9
3 15 16 10
3 17 18 12
3 19 20 13
3 20 21 14
3 15 22 23
3 16 24 25
3 26 27 18
3 28 29 19
3 30 31 20
3 31 22 21
3 22 24 23
3 25 32 33
3 34 35 27
3 28 36 37
3 37 38 30
3 38 39 31
3 39 40 22
3 40 32 24
3 32 41 33
3 42 43 35
3 44 45 46
3 36 47 37
3 47 48 38
3 48 49 39
3 49 50 40
3 32 51 52
3 52 53 41
3 54 55 56
3 57 58 59
3 60 61 47
3 61 62 48
3 49 63 64
3 64 51 50
3 52 65 66
3 67 68 69
3 70 55 71
3 72 73 61
3 73 63 62
3 64 74 75
3 75 65 51
3 66 76 77
3 71 55 78
3 79 80 73
3 80 74 63
3 74 81 75
3 76 81 82
3 83 84 80
3 74 85 86
3 82 86 87
3 88 85 84
3 87 85 89
3 90 91 92
3 89 93 94
3 78 95 96
3 97 98 99
3 100 101 98
3 102 103 104
3 105 106 107
3 108 106 105
3 107 106 109
3 109 106 108
3 107 108 105
3 110 111 112
3 0 6 1
3 3 9 4
3 6 11 7
3 8 14 9
3 9 15 10
3 11 17 12
3 13 20 14
3 14 21 15
3 15 23 16
3 17 26 18
3 19 29 20
3 20 31 21
3 15 21 22
3 16 23 24
3 26 34 27
3 28 37 29
3 30 38 31
3 31 39 22
3 22 40 24
3 25 24 32
3 34 42 35
3 28 113 36
3 37 47 38
3 38 48 39
3 39 49 40
3 40 50 32
3 32 52 41
3 42 54 43
3 114 115 116
3 115 117 116
3 117 118 116
3 118 44 46
3 116 118 46
3 36 60 47
3 47 61 48
3 48 62 49
3 49 64 50
3 32 50 51
3 52 66 53
3 56 43 54
3 55 70 56
3 58 91 90
3 90 59 58
3 59 119 57
3 119 120 57
3 120 121 57
3 60 72 61
3 61 73 62
3 49 62 63
3 64 75 51
3 52 51 65
3 69 53 67
3 53 66 67
3 66 77 67
3 72 79 73
3 73 80 63
3 64 63 74
3 75 81 65
3 66 65 76
3 79 83 80
3 80 84 74
3 74 86 81
3 76 65 81
3 83 88 84
3 74 84 85
3 82 81 86
3 88 93 85
3 87 86 85
3 92 45 44
3 44 122 92
3 122 90 92
3 89 85 93
3 96 56 70
3 70 71 96
3 71 78 96
3 98 123 124
3 124 125 98
3 125 126 98
3 126 127 98
3 127 128 98
3 128 129 98
3 129 99 98
3 99 130 97
3 98 131 132
3 132 133 98
3 133 134 98
3 134 135 98
3 135 136 98
3 136 137 98
3 137 100 98
3 100 138 139
3 139 140 100
3 140 101 100
3 101 141 98
3 141 142 98
3 142 143 98
3 144 104 145
3 104 146 147
3 147 148 104
3 148 102 104
3 145 104 149
3 145 150 144
3 151 149 104
3 103 152 104
3 152 151 104
3 107 109 108
3 153 154 112
3 112 155 156
3 155 157 156
3 157 158 156
3 158 159 156
3 159 160 156
3 160 161 156
3 161 162 156
3 156 163 112
3 163 164 112
3 164 165 112
3 111 153 112
3 165 110 112
