ply
format ascii 1.0
comment Created by Blender 2.79 (sub 0) - www.blender.org, source file: 'curve.blend'
element vertex 52
property float x
property float y
property float z
property float s
property float t
property uchar red
property uchar green
property uchar blue
element face 40
property list uchar uint vertex_indices
end_header
-0.500000 0.500000 -0.500000 0.000000 0.000000 255 255 255
-0.500000 -0.500000 -0.500000 0.000000 0.000000 255 255 255
-0.500000 0.500000 -0.500000 0.000000 0.000000 255 255 255
-0.500000 0.500000 -0.500000 0.002326 0.000101 255 255 255
-0.500000 0.500000 0.500000 0.999900 0.000100 255 255 255
-0.304909 0.500000 -0.480785 0.021495 0.194717 255 255 255
-0.500000 0.500000 -0.500000 0.999999 0.999911 255 255 255
-0.304909 -0.500000 -0.480785 0.875000 0.000089 255 255 255
-0.500000 -0.500000 -0.500000 1.000001 0.000089 255 255 255
0.480785 -0.500000 0.304911 0.805506 0.019246 255 255 255
0.500000 -0.500000 0.500000 0.999900 0.000100 255 255 255
-0.500000 -0.500000 0.500000 0.999900 0.996538 255 255 255
0.480785 -0.500000 0.304911 0.124999 0.000089 255 255 255
0.500000 0.500000 0.500000 0.000089 0.999911 255 255 255
0.500000 -0.500000 0.500000 0.000089 0.000089 255 255 255
0.423880 0.500000 0.117317 0.250000 0.999911 255 255 255
0.423880 -0.500000 0.117317 0.250000 0.000089 255 255 255
0.331470 0.500000 -0.055570 0.375000 0.999911 255 255 255
0.331470 -0.500000 -0.055570 0.375000 0.000089 255 255 255
0.207107 0.500000 -0.207106 0.500000 0.999911 255 255 255
0.207107 -0.500000 -0.207106 0.500000 0.000089 255 255 255
0.055571 0.500000 -0.331469 0.625000 0.999911 255 255 255
0.055571 -0.500000 -0.331469 0.625000 0.000089 255 255 255
-0.117316 0.500000 -0.423879 0.750000 0.999911 255 255 255
-0.117316 -0.500000 -0.423879 0.750000 0.000089 255 255 255
-0.304909 0.500000 -0.480785 0.874999 0.999911 255 255 255
-0.500000 -0.500000 -0.500000 0.000071 0.000071 255 255 255
-0.500000 0.500000 0.500000 1.000000 1.000000 255 255 255
-0.500000 0.500000 -0.500000 0.000071 0.999929 255 255 255
0.500000 0.500000 0.500000 1.000000 1.000000 255 255 255
-0.500000 -0.500000 0.500000 0.000071 0.000071 255 255 255
0.500000 -0.500000 0.500000 1.000000 0.000000 255 255 255
-0.500000 -0.500000 -0.500000 0.000000 0.000000 255 255 255
0.500000 0.500000 0.500000 0.999900 0.997673 255 255 255
0.480785 0.500000 0.304911 0.805285 0.978505 255 255 255
0.423880 0.500000 0.117317 0.618147 0.921739 255 255 255
0.331470 0.500000 -0.055570 0.445681 0.829554 255 255 255
0.207107 0.500000 -0.207106 0.294511 0.705493 255 255 255
0.055571 0.500000 -0.331469 0.170449 0.554323 255 255 255
-0.117316 0.500000 -0.423879 0.078262 0.381855 255 255 255
-0.500000 0.500000 -0.500000 0.000100 0.012272 255 255 255
-0.500000 -0.500000 -0.500000 0.003462 0.996538 255 255 255
-0.500000 -0.500000 -0.500000 0.000100 0.995940 255 255 255
-0.304909 -0.500000 -0.480785 0.022609 0.802141 255 255 255
-0.117316 -0.500000 -0.423879 0.079312 0.615216 255 255 255
0.055571 -0.500000 -0.331469 0.171392 0.442946 255 255 255
0.207107 -0.500000 -0.207106 0.295312 0.291949 255 255 255
0.331470 -0.500000 -0.055570 0.446309 0.168029 255 255 255
0.423880 -0.500000 0.117317 0.618580 0.075949 255 255 255
0.480785 0.500000 0.304911 0.125001 0.999911 255 255 255
-0.500000 -0.500000 0.500000 1.000000 -0.000000 255 255 255
-0.500000 0.500000 0.500000 0.000071 0.999929 255 255 255
3 0 1 2
3 3 4 5
3 6 7 8
3 9 10 11
3 12 13 14
3 15 12 16
3 17 16 18
3 19 18 20
3 21 20 22
3 23 22 24
3 25 24 7
3 26 27 28
3 29 30 31
3 0 32 1
3 4 33 34
3 34 35 4
3 35 36 4
3 36 37 4
3 37 38 4
3 38 39 4
3 39 5 4
3 5 40 3
3 6 25 7
3 11 41 42
3 42 43 11
3 43 44 11
3 44 45 11
3 45 46 11
3 46 47 11
3 47 48 11
3 48 9 11
3 12 49 13
3 15 49 12
3 17 15 16
3 19 17 18
3 21 19 20
3 23 21 22
3 25 23 24
3 26 50 27
3 29 51 30
