ply
format ascii 1.0
comment Created by Blender 2.79 (sub 0) - www.blender.org, source file: 'slab.blend'
element vertex 22
property float x
property float y
property float z
property float s
property float t
property uchar red
property uchar green
property uchar blue
element face 12
property list uchar uint vertex_indices
end_header
-0.500000 -0.500000 0.500000 0.000100 0.999900 255 255 255
0.500000 -0.500000 -0.500000 0.999900 0.000100 255 255 255
0.500000 -0.500000 0.500000 0.999900 0.999900 255 255 255
0.500000 0.000000 0.500000 0.000100 0.999900 255 255 255
-0.499999 0.000000 -0.500000 0.999899 0.000100 255 255 255
-0.500000 0.000000 0.499999 0.999900 0.999899 255 255 255
-0.500000 0.000000 0.499999 0.999900 0.500000 255 255 255
-0.500000 -0.500000 -0.500000 0.000100 0.000100 255 255 255
-0.500000 -0.500000 0.500000 0.999900 0.000100 255 255 255
-0.499999 0.000000 -0.500000 0.999900 0.500000 255 255 255
0.500000 -0.500000 -0.500000 0.000100 0.000100 255 255 255
-0.500000 -0.500000 -0.500000 0.999900 0.000100 255 255 255
0.500000 -0.500000 -0.500000 0.000100 0.500000 255 255 255
0.500000 0.000000 0.500000 0.999900 0.000100 255 255 255
0.500000 -0.500000 0.500000 0.999900 0.500000 255 255 255
-0.500000 -0.500000 0.500000 0.999900 0.500000 255 255 255
0.500000 0.000000 0.500000 0.000100 0.000100 255 255 255
-0.500000 0.000000 0.499999 0.999900 0.000100 255 255 255
0.500000 0.000000 -0.500000 0.000100 0.000100 255 255 255
-0.499999 0.000000 -0.500000 0.000100 0.500000 255 255 255
0.500000 0.000000 -0.500000 0.000100 0.500000 255 255 255
0.500000 -0.500000 0.500000 0.000100 0.500000 255 255 255
3 0 1 2
3 3 4 5
3 6 7 8
3 9 10 11
3 12 13 14
3 15 16 17
3 0 7 1
3 3 18 4
3 6 19 7
3 9 20 10
3 12 18 13
3 15 21 16
