ply
format ascii 1.0
comment Created by Blender 2.79 (sub 0) - www.blender.org, source file: ''
element vertex 24
property float x
property float y
property float z
property float s
property float t
property uchar red
property uchar green
property uchar blue
element face 10
property list uchar uint vertex_indices
end_header
0.500000 -0.500000 0.500000 0.999900 0.000100 255 255 255
-0.500000 -0.500000 0.500000 0.000100 0.000100 255 255 255
-0.500000 -0.500000 -0.500000 0.000100 0.999900 255 255 255
0.500000 0.000000 0.000000 0.000084 0.706900 255 255 255
-0.500000 0.000000 0.000000 0.999672 0.707245 255 255 255
-0.500000 -0.500000 0.500000 0.999916 0.000430 255 255 255
0.500000 -0.500000 -0.500000 0.999916 0.000084 255 255 255
-0.500000 -0.500000 -0.500000 0.000084 0.000084 255 255 255
-0.500000 0.000000 0.000000 0.000084 0.707072 255 255 255
-0.500000 0.000000 0.000000 0.500000 0.500000 255 255 255
-0.500000 0.000000 0.000000 0.500000 0.500000 255 255 255
-0.500000 -0.500000 -0.500000 0.000000 0.000000 255 255 255
0.500000 0.000000 0.000000 0.500000 0.500000 255 255 255
0.500000 -0.500000 -0.500000 0.000000 0.000000 255 255 255
0.500000 0.000000 0.000000 0.500000 0.500000 255 255 255
0.500000 -0.500000 -0.500000 0.999900 0.999900 255 255 255
0.500000 -0.500000 0.500000 0.000328 0.000084 255 255 255
0.500000 0.000000 0.000000 0.999916 0.707072 255 255 255
-0.500000 0.000000 0.000000 0.498338 0.499605 255 255 255
-0.500000 -0.500000 -0.500000 0.998338 -0.000395 255 255 255
-0.500000 -0.500000 0.500000 -0.001662 -0.000395 255 255 255
0.500000 0.000000 0.000000 0.501000 0.501461 255 255 255
0.500000 -0.500000 0.500000 0.001000 0.001461 255 255 255
0.500000 -0.500000 -0.500000 1.001000 0.001461 255 255 255
3 0 1 2
3 3 4 5
3 6 7 8
3 9 10 11
3 12 13 14
3 0 2 15
3 3 5 16
3 6 8 17
3 18 19 20
3 21 22 23
