ply
format ascii 1.0
comment Created by Blender 2.79 (sub 0) - www.blender.org, source file: 'slopedangelblock.blend'
element vertex 22
property float x
property float y
property float z
property float s
property float t
property uchar red
property uchar green
property uchar blue
element face 7
property list uchar uint vertex_indices
end_header
0.500000 -0.500000 -0.500000 0.003131 0.003131 255 255 255
0.500000 0.500000 -0.500000 0.003131 0.996869 255 255 255
0.500000 0.500000 0.500000 0.996869 0.996869 255 255 255
0.500000 -0.500000 0.500000 0.996869 0.003131 255 255 255
0.500000 -0.500000 0.500000 0.003131 0.003131 255 255 255
0.500000 0.500000 0.500000 0.003131 0.996869 255 255 255
-0.500000 0.500000 0.500000 0.996869 0.996869 255 255 255
-0.500000 -0.500000 0.500000 0.996869 0.003131 255 255 255
-0.500000 -0.500000 -0.500000 0.003131 0.003131 255 255 255
-0.500000 -0.500000 -0.500000 0.003131 0.003131 255 255 255
-0.500000 -0.500000 -0.500000 0.996869 0.003131 255 255 255
-0.500000 -0.500000 -0.500000 0.996869 0.003131 255 255 255
0.500000 -0.500000 0.500000 0.003131 0.996869 255 255 255
-0.500000 -0.500000 0.500000 0.996869 0.996869 255 255 255
0.500000 0.500000 -0.500000 0.003131 0.003131 255 255 255
0.000000 0.500000 0.000000 0.500000 0.500000 255 255 255
-0.500000 0.500000 0.500000 0.996869 0.996869 255 255 255
0.500000 0.500000 0.500000 0.003131 0.996869 255 255 255
0.500000 0.500000 -0.500000 0.003131 0.003131 255 255 255
-0.500000 -0.500000 -0.500000 0.996869 0.003131 255 255 255
-0.500000 0.500000 0.500000 0.996869 0.996869 255 255 255
0.000000 0.500000 0.000000 0.500000 0.500000 255 255 255
4 0 1 2 3
4 4 5 6 7
4 7 6 8 9
4 1 0 10 11
4 10 0 12 13
4 14 15 16 17
4 18 19 20 21
