ply
format ascii 1.0
comment Created by Blender 2.79 (sub 0) - www.blender.org, source file: 'slopecorner.blend'
element vertex 39
property float x
property float y
property float z
property float s
property float t
property uchar red
property uchar green
property uchar blue
element face 20
property list uchar uint vertex_indices
end_header
0.500000 -0.500000 0.500000 0.999900 0.999240 255 255 255
0.500000 -0.500000 -0.500000 0.000100 0.999240 255 255 255
0.500000 -0.499339 -0.500000 0.000100 0.998579 255 255 255
0.500000 0.499340 0.498679 1.000000 0.000939 255 255 255
0.500000 0.499340 0.498680 1.000000 0.000939 255 255 255
0.500000 0.499340 0.498679 1.000000 0.000939 255 255 255
-0.498680 -0.499340 -0.500000 0.000661 0.710938 255 255 255
-0.499340 -0.500000 -0.500000 0.000000 0.710938 255 255 255
-0.499340 -0.500000 0.500000 0.000000 0.000000 255 255 255
-0.499340 -0.500000 0.500000 1.000000 0.000000 255 255 255
0.500000 -0.500000 0.500000 0.000000 0.000000 255 255 255
0.500000 0.499340 0.500000 0.000000 1.000000 255 255 255
0.500000 -0.500000 -0.500000 0.000100 0.000100 255 255 255
-0.499340 -0.500000 0.500000 0.999900 0.999240 255 255 255
-0.499340 -0.500000 -0.500000 0.000100 0.999240 255 255 255
0.500000 -0.499339 -0.500000 0.000100 0.000761 255 255 255
0.500000 -0.499340 -0.500000 0.000100 0.000761 255 255 255
0.500000 -0.499339 -0.500000 0.999999 1.000000 255 255 255
0.500000 0.499340 0.498680 0.000661 0.000661 255 255 255
0.500000 0.499340 0.498679 0.000661 0.000661 255 255 255
-0.498680 -0.499340 -0.500000 -0.011719 0.000000 255 255 255
0.500000 0.499340 0.498680 1.000000 1.000000 255 255 255
0.500000 -0.499340 -0.500000 1.000000 0.000000 255 255 255
0.500000 -0.499339 -0.500000 0.000330 0.118490 255 255 255
0.500000 0.499340 0.498679 0.999010 0.118490 255 255 255
0.500000 0.499340 0.498679 0.999010 0.118490 255 255 255
0.500000 -0.499339 -0.500000 0.000000 0.000000 255 255 255
0.500000 0.499340 0.498679 1.000000 1.000000 255 255 255
0.500000 -0.500000 0.500000 1.000000 0.000000 255 255 255
0.500000 0.499340 0.498679 0.998580 0.000100 255 255 255
0.500000 0.499340 0.498680 0.998580 0.000100 255 255 255
0.500000 0.499340 0.500000 0.999900 0.000100 255 255 255
0.500000 0.499340 0.500000 1.000000 0.000000 255 255 255
0.500000 -0.500000 0.500000 0.999900 0.000100 255 255 255
-0.499340 -0.500000 -0.500000 0.999900 0.000100 255 255 255
-0.498680 -0.499340 -0.500000 0.999239 0.000760 255 255 255
0.500000 -0.499339 -0.500000 0.000100 0.000761 255 255 255
0.500000 -0.499340 -0.500000 1.000000 1.000000 255 255 255
0.500000 -0.499339 -0.500000 0.000330 0.118490 255 255 255
3 0 1 2
3 3 4 5
3 6 7 8
3 9 10 11
3 12 13 14
3 15 12 16
3 17 18 19
3 20 21 22
3 23 24 25
3 26 27 28
3 29 30 0
3 30 31 0
3 8 32 4
3 21 20 9
3 12 33 13
3 12 34 35
3 16 36 15
3 12 35 16
3 17 37 18
3 23 38 24
