ply
format ascii 1.0
comment Created by Blender 2.80 (sub 75) - www.blender.org, source file: 'slopecorneredge.blend'
element vertex 16
property float x
property float y
property float z
property float s
property float t
property uchar red
property uchar green
property uchar blue
property uchar alpha
element face 8
property list uchar uint vertex_indices
end_header
0.000000 -0.500000 0.000000 0.000000 0.496094 255 255 255 255
0.500000 0.500000 0.500000 1.000000 0.496094 255 255 255 255
0.500000 -0.500000 -0.500000 0.000000 0.000000 255 255 255 255
0.500000 0.000000 0.000000 0.500000 0.500000 255 255 255 255
0.500000 0.500000 0.500000 0.999900 0.999900 255 255 255 255
0.500000 -0.500000 0.500000 0.999900 0.000100 255 255 255 255
0.500000 -0.500000 0.500000 0.000100 0.000100 255 255 255 255
0.500000 0.500000 0.500000 0.000100 0.999900 255 255 255 255
0.000000 0.000000 0.500000 0.500000 0.500000 255 255 255 255
0.000000 -0.500000 0.000000 0.500000 0.500000 255 255 255 255
0.500000 -0.500000 -0.500000 1.000000 1.000000 255 255 255 255
0.500000 -0.500000 0.500000 1.000000 0.000000 255 255 255 255
-0.500000 -0.500000 0.500000 0.000000 1.000000 255 255 255 255
0.500000 -0.500000 -0.500000 0.000100 0.000100 255 255 255 255
-0.500000 -0.500000 0.500000 0.999900 0.000100 255 255 255 255
-0.500000 -0.500000 0.500000 0.000000 0.000000 255 255 255 255
3 0 1 2
3 3 4 5
3 6 7 8
3 9 10 11
3 0 12 1
3 3 5 13
3 6 8 14
3 9 11 15
