ply
format ascii 1.0
comment Created by Blender 2.79 (sub 0) - www.blender.org, source file: 'slopeinnercorner.blend'
element vertex 39
property float x
property float y
property float z
property float s
property float t
property uchar red
property uchar green
property uchar blue
element face 21
property list uchar uint vertex_indices
end_header
0.000165 -0.000495 -0.500000 0.499835 0.499505 255 255 255
-0.500000 0.499340 -0.500000 1.000000 0.999340 255 255 255
0.500000 0.499340 -0.500000 0.000000 0.999340 255 255 255
0.500000 0.499340 -0.500000 0.000000 0.999340 255 255 255
-0.499340 -0.500000 -0.500000 0.999340 0.000000 255 255 255
-0.500000 -0.500000 -0.500000 1.000000 0.000000 255 255 255
0.500000 0.499340 -0.500000 0.000000 0.000000 255 255 255
0.500000 0.499340 -0.500000 0.000000 0.000000 255 255 255
-0.500000 0.499340 -0.500000 1.000000 0.000000 255 255 255
0.000165 -0.000495 -0.000165 0.499835 0.499835 255 255 255
0.500000 0.499340 -0.500000 0.000000 0.999340 255 255 255
-0.499340 -0.500000 -0.499340 0.999340 0.000660 255 255 255
-0.500000 0.499340 -0.500000 0.000000 0.999340 255 255 255
-0.500000 -0.500000 -0.500000 0.000000 0.000000 255 255 255
-0.500000 -0.500000 0.499340 0.999340 0.000000 255 255 255
-0.500000 -0.500000 0.499340 1.000000 0.999340 255 255 255
-0.499340 -0.500000 0.499340 0.999340 0.999340 255 255 255
-0.499340 -0.500000 0.499340 0.999340 0.999340 255 255 255
-0.500000 -0.500000 0.499340 1.000000 0.999340 255 255 255
0.000165 -0.000495 -0.500000 0.499835 0.000000 255 255 255
0.500000 0.499340 -0.500000 0.000000 0.000000 255 255 255
-0.499340 -0.500000 -0.499340 0.999340 0.000660 255 255 255
-0.499340 -0.500000 -0.500000 0.999340 0.000000 255 255 255
0.500000 -0.500000 0.500000 1.000000 0.000000 255 255 255
0.500000 0.499340 -0.500000 0.000000 0.999340 255 255 255
0.500000 0.499340 0.500000 1.000000 0.999340 255 255 255
-0.499340 -0.500000 0.500000 0.999340 0.000000 255 255 255
0.500000 -0.500000 0.500000 0.000000 0.000000 255 255 255
0.500000 0.499340 0.500000 0.000000 0.999340 255 255 255
0.500000 -0.500000 -0.500000 0.000000 0.000000 255 255 255
-0.499340 -0.500000 0.500000 0.999340 1.000000 255 255 255
-0.499340 -0.500000 -0.500000 0.999340 0.000000 255 255 255
0.500000 0.499340 -0.500000 -0.000330 0.000330 255 255 255
-0.499340 -0.500000 0.500000 0.999670 0.999670 255 255 255
0.500000 0.499340 0.500000 0.999670 0.000330 255 255 255
0.500000 -0.500000 0.500000 0.000000 1.000000 255 255 255
0.500000 0.499340 -0.500000 0.000000 0.000000 255 255 255
-0.499340 -0.500000 -0.500000 0.999340 0.000000 255 255 255
-0.499340 -0.500000 0.500000 0.999340 1.000000 255 255 255
4 0 1 2 3
4 1 0 4 5
4 6 7 8 9
3 3 2 10
3 11 5 4
3 12 13 14
4 9 8 15 16
4 17 18 5 11
3 19 20 6
3 6 9 17
3 17 21 22
3 22 19 6
3 6 17 22
3 23 24 25
3 26 27 28
3 29 30 31
3 24 29 31
3 32 33 34
3 23 29 24
3 29 35 30
3 36 37 38
